<svg width="100" height="39" viewBox="0 0 100 39" fill="none" xmlns="http://www.w3.org/2000/svg">
<g clip-path="url(#clip0_0_1573)">
<path d="M0.370754 0.228237C0.393182 0.340379 0.475419 0.347855 0.572608 0.347855C1.40245 0.347855 2.20987 0.52728 3.02476 0.64939C3.91691 0.783959 4.81404 0.891116 5.70867 1.0207C6.57341 1.14779 7.43565 1.28984 8.29789 1.4269C8.73898 1.49668 9.18256 1.54652 9.62364 1.6163C11.0167 1.84058 12.4122 2.03994 13.8078 2.24179C14.6326 2.36141 15.46 2.46857 16.2848 2.59068C17.2168 2.72774 18.1489 2.88224 19.0809 3.01931C19.9456 3.14889 20.8103 3.26352 21.6751 3.39062C22.5872 3.52519 23.4992 3.66972 24.4113 3.80429C25.296 3.93388 26.1807 4.06097 27.0678 4.17561C27.4815 4.22794 27.8852 4.34756 28.3064 4.35254C28.5257 4.35503 28.4634 4.52698 28.4285 4.63912C28.2366 5.30699 28.0671 5.98482 27.8279 6.63773C27.6834 7.03147 27.5612 7.43268 27.4242 7.82642C27.2921 8.20272 27.18 8.59397 27.0653 8.98023C26.8734 9.61819 26.6691 10.2537 26.4772 10.8916C26.2953 11.4922 26.1209 12.0953 25.9364 12.6958C25.757 13.2765 25.5626 13.8521 25.3832 14.4353C25.2486 14.8689 25.129 15.305 24.9969 15.7386C24.8175 16.3317 24.6356 16.9248 24.4512 17.5154C24.2668 18.106 24.0799 18.6966 23.8955 19.2872C23.7011 19.9078 23.5092 20.5283 23.3198 21.1513C23.1329 21.7618 22.9585 22.3774 22.7691 22.9879C22.5872 23.5785 22.3878 24.1616 22.2059 24.7523C22.0738 25.1759 21.9567 25.602 21.8271 26.0257C21.6925 26.4668 21.5455 26.9054 21.4109 27.3465C21.2838 27.7576 21.1667 28.1738 21.0421 28.585C20.91 29.0161 20.773 29.4472 20.6384 29.8784C20.5113 30.2895 20.3842 30.7032 20.2571 31.1169C20.1201 31.5555 19.9805 31.9941 19.8459 32.4352C19.7188 32.8464 19.6017 33.2625 19.4721 33.6737C19.2778 34.2992 19.0784 34.9247 18.8815 35.5502C18.7619 35.934 18.6398 36.3153 18.5301 36.7015C18.4055 37.1401 18.2934 37.5837 18.1065 38.0024C18.0542 38.1195 18.0567 38.1195 17.9196 38.122C14.9416 38.122 11.9637 38.117 8.98569 38.1319C8.71655 38.1319 8.62683 38.0447 8.57201 37.8155C8.39757 37.1002 8.16581 36.4 7.93904 35.6997C7.68983 34.9347 7.48798 34.1547 7.25124 33.3871C7.01449 32.6196 6.75034 31.862 6.51609 31.0945C6.28184 30.3344 6.075 29.5669 5.84324 28.8068C5.6065 28.0392 5.34733 27.2767 5.11059 26.5091C4.92618 25.9185 4.76669 25.3204 4.58477 24.7298C4.40036 24.1293 4.201 23.5337 4.01659 22.9331C3.83467 22.34 3.66272 21.7444 3.48579 21.1513C3.36118 20.7376 3.22911 20.3239 3.10201 19.9103C2.96744 19.4791 2.83537 19.0455 2.70329 18.6119C2.5139 18.0014 2.32699 17.3908 2.13262 16.7803C2.00801 16.3865 1.9183 15.9828 1.75881 15.6015C1.73389 15.5442 1.71396 15.4545 1.79121 15.4146C1.856 15.3798 1.8884 15.4595 1.93575 15.4919C2.74815 16.0152 3.59294 16.4812 4.43276 16.9522C6.02765 17.8469 7.70229 18.6044 9.20748 19.6536C10.2217 20.3613 11.0067 21.2709 11.5874 22.3674C12.0309 23.2047 12.3748 24.0794 12.6564 24.9765C12.9256 25.8288 13.2072 26.6811 13.3368 27.5782C13.4938 27.5359 13.4938 27.4063 13.5187 27.3141C13.7156 26.5814 13.8975 25.8438 14.0918 25.1086C14.2239 24.6127 14.371 24.1218 14.503 23.6259C14.6301 23.1499 14.7472 22.6714 14.8743 22.1929C15.0687 21.4603 15.2731 20.7276 15.4674 19.995C15.592 19.5265 15.7017 19.0555 15.8238 18.587C15.9609 18.0637 16.1054 17.5403 16.2474 17.017C16.3546 16.6183 16.4643 16.2196 16.5639 15.8159C16.6935 15.2975 16.8505 14.7842 16.9303 14.2608C17.1221 13.0173 16.544 12.0853 15.6419 11.3128C14.9441 10.7147 14.1442 10.2736 13.3268 9.86241C12.6789 9.53844 12.011 9.25435 11.3431 8.97525C10.6005 8.66623 9.83796 8.40457 9.08537 8.1155C8.50722 7.89371 7.93156 7.66693 7.35341 7.44265C6.06005 6.93926 4.77167 6.42341 3.55805 5.75057C2.5737 5.20481 1.61926 4.59676 0.911524 3.69215C0.480403 3.1464 0.0766949 2.58071 0.131519 1.83061C0.138996 1.73093 0.0991232 1.68358 0.0119023 1.66115C0.0119023 1.29981 0.0393146 0.933481 0.00442621 0.574629C-0.0254781 0.260634 0.079187 0.165937 0.370754 0.228237Z" fill="black"/>
<path d="M81.1421 27.0249C82.7046 27.0249 84.2696 27.0274 85.8321 27.0224C86.0564 27.0224 86.1236 27.0947 86.1137 27.3215C86.0937 27.7775 86.0863 28.2361 86.1137 28.6921C86.1261 28.9288 86.0539 28.9862 85.8371 28.9837C84.8602 28.9737 83.8858 28.9837 82.9089 28.9687C82.6423 28.9637 82.5376 29.0435 82.5875 29.3051C82.59 29.3251 82.5875 29.345 82.5875 29.3649C82.5924 29.8135 82.8151 30.0378 83.2553 30.0378C85.2165 30.0378 87.1803 30.0428 89.1415 30.0328C89.3359 30.0328 89.3807 30.0951 89.3782 30.272C89.3683 30.7979 89.3658 31.3262 89.3658 31.852C89.3658 32.004 89.3658 32.0912 89.149 32.1012C88.3515 32.1386 87.5566 32.1161 86.7616 32.1087C86.5199 32.1087 86.4401 32.1361 86.4451 32.4102C86.4626 33.9802 86.4501 35.5526 86.4601 37.1226C86.4601 37.3344 86.3853 37.4042 86.1835 37.4017C85.4358 37.3967 84.6907 37.3942 83.9431 37.4017C83.7114 37.4042 83.664 37.312 83.6665 37.0977C83.679 35.4978 83.679 33.8979 83.684 32.2981C83.684 32.161 83.6391 32.0987 83.4946 32.1037C83.2553 32.1136 83.0186 32.1087 82.7793 32.1062C82.6348 32.1062 82.5725 32.156 82.575 32.3205C82.59 33.9303 82.5949 35.5402 82.6074 37.1525C82.6074 37.3295 82.5501 37.3992 82.3607 37.3967C81.5533 37.3843 80.7483 37.3793 79.9409 37.3918C79.7316 37.3942 79.6867 37.327 79.6867 37.1401C79.6942 35.5402 79.6942 33.9378 79.7017 32.3379C79.7017 32.166 79.6793 32.1062 79.4724 32.1087C78.4482 32.1311 77.4215 32.1236 76.3973 32.1311C76.2478 32.1311 76.2029 32.0638 76.2029 31.9342C76.1979 31.3586 76.1954 30.7804 76.1904 30.2048C76.1904 30.0552 76.2702 30.0328 76.4023 30.0328C77.409 30.0378 78.4133 30.0278 79.4201 30.0453C79.6593 30.0502 79.7167 29.9805 79.6992 29.7637C79.6818 29.5768 79.6818 29.3849 79.6992 29.198C79.7191 29.0011 79.6369 28.9662 79.46 28.9687C78.4532 28.9787 77.4489 28.9687 76.4421 28.9812C76.2652 28.9812 76.1904 28.9538 76.1954 28.7569C76.2079 28.251 76.2004 27.7426 76.1954 27.2367C76.1954 27.0748 76.2428 27.0175 76.4222 27.0199C77.9947 27.0274 79.5696 27.0249 81.1421 27.0249Z" fill="#902420"/>
<path d="M0.946479 11.8934C1.01626 10.0119 1.85607 8.5765 3.51825 7.68684C4.52004 7.15106 5.61903 7.02646 6.72299 7.37285C7.93661 7.75413 8.90102 8.4519 9.52652 9.6057C10.0249 10.5278 10.2467 11.4996 10.0972 12.5139C9.85298 14.1736 9.00569 15.4445 7.45814 16.1946C6.52612 16.6457 5.56171 16.7678 4.54496 16.5161C3.09211 16.1547 2.05792 15.3 1.41 13.9568C1.09351 13.3039 0.934019 12.6211 0.946479 11.8909V11.8934Z" fill="#902420"/>
<path d="M61.5422 31.1767C61.5422 29.5469 61.5472 28.413 61.5372 27.2792C61.5372 27.0773 61.6095 27.01 61.7939 27.01C62.5515 27.01 63.3066 27.01 64.0642 27.01C64.2361 27.01 64.3109 27.0748 64.3109 27.2592C64.3034 29.3675 64.3109 31.4757 64.2984 33.584C64.2909 34.7353 64.0293 35.7969 63.1072 36.5943C62.4992 37.1202 61.7815 37.3843 60.994 37.5214C60.371 37.631 59.748 37.6734 59.1225 37.626C57.9712 37.5363 56.8722 37.2896 56.0199 36.4199C55.4368 35.8243 55.1377 35.0917 55.0555 34.2817C54.9683 33.4295 55.0231 32.5722 55.0206 31.7175C55.0156 30.2347 55.0206 28.7544 55.0131 27.2717C55.0131 27.0524 55.0829 27.01 55.2922 27.015C56.0199 27.03 56.7476 27.0324 57.4728 27.015C57.6945 27.01 57.7444 27.0673 57.7444 27.2767C57.7369 29.3251 57.7419 31.3736 57.7344 33.422C57.7344 33.8531 57.8042 34.2718 57.9562 34.6705C58.1381 35.154 58.5194 35.4405 59.0053 35.5402C59.596 35.6598 60.199 35.6673 60.7523 35.3782C61.2407 35.1241 61.4625 34.6655 61.5048 34.1447C61.5971 32.9934 61.5248 31.8396 61.5397 31.1817L61.5422 31.1767Z" fill="black"/>
<path d="M43.2011 37.4067C42.912 37.4067 42.6229 37.4067 42.3339 37.4067C41.7731 37.4067 41.7781 37.4067 41.6112 36.8734C41.4567 36.3875 41.2872 35.9065 41.1327 35.4181C41.0903 35.286 41.0081 35.291 40.9059 35.291C39.7696 35.291 38.6357 35.296 37.4993 35.291C37.3024 35.291 37.2302 35.3708 37.1729 35.5552C37.0084 36.1009 36.8165 36.6417 36.6321 37.18C36.5698 37.3594 36.4552 37.4167 36.2458 37.4117C35.5207 37.3943 34.793 37.4018 34.0653 37.4167C33.8336 37.4217 33.7912 37.3345 33.8784 37.155C34.1102 36.6666 34.2597 36.1508 34.4566 35.6499C34.6634 35.124 34.8628 34.5932 35.0571 34.0599C35.2889 33.4245 35.5107 32.784 35.7449 32.1461C35.9817 31.5006 36.2284 30.8602 36.4651 30.2172C36.6994 29.5818 36.9286 28.9413 37.1579 28.3034C37.285 27.952 37.4146 27.6006 37.5417 27.2517C37.6065 27.0748 37.7062 27.0025 37.918 27.005C38.7453 27.0225 39.5727 27.0324 40.3975 27C40.7215 26.9876 40.8536 27.1221 40.9458 27.3863C41.2399 28.2386 41.5563 29.0809 41.8778 29.9232C42.2342 30.8552 42.5407 31.8047 42.8821 32.7392C43.1712 33.5291 43.4902 34.3091 43.7817 35.0966C44.016 35.7296 44.2303 36.3701 44.4546 37.0055C44.4695 37.0504 44.4919 37.0977 44.5243 37.1301C44.5866 37.1974 44.6041 37.2722 44.5717 37.3494C44.5293 37.4516 44.4371 37.4042 44.3624 37.4042C43.9736 37.4042 43.5848 37.4042 43.1961 37.4042C43.1961 37.4042 43.1961 37.4018 43.1961 37.3993L43.2011 37.4067ZM39.1316 29.7064C39.0768 29.9282 39.0494 30.0802 39.002 30.2297C38.8724 30.6309 38.7354 31.0296 38.6008 31.4259C38.4239 31.9442 38.2594 32.47 38.06 32.9809C37.9055 33.3771 37.8856 33.3697 38.2918 33.3622C38.3416 33.3622 38.3915 33.3622 38.4413 33.3622C39.0269 33.3622 39.6126 33.3672 40.1982 33.3622C40.2779 33.3622 40.4598 33.4369 40.3975 33.2276C40.3128 32.946 40.2106 32.6719 40.1159 32.3928C39.9191 31.8171 39.7397 31.2365 39.5179 30.6708C39.4032 30.3742 39.3634 30.0428 39.1316 29.7064Z" fill="black"/>
<path d="M98.4766 37.4117C98.1078 37.4117 97.739 37.4092 97.3726 37.4117C97.2082 37.4117 97.116 37.3768 97.0587 37.1849C96.8767 36.5844 96.6549 35.9963 96.4531 35.4032C96.4157 35.2935 96.336 35.2935 96.2413 35.2935C95.0974 35.296 93.9511 35.296 92.8073 35.2935C92.6328 35.2935 92.5556 35.3458 92.5082 35.5377C92.406 35.934 92.2665 36.3227 92.1145 36.704C92.0397 36.8959 92.0322 37.1102 91.9076 37.2871C91.8428 37.3793 91.7855 37.4217 91.6709 37.4192C90.9058 37.4142 90.1383 37.4092 89.3732 37.4192C89.134 37.4217 89.149 37.2896 89.2088 37.1526C89.5626 36.3327 89.8343 35.4829 90.1458 34.6481C90.385 34.0051 90.6442 33.3672 90.8809 32.7242C91.1177 32.0788 91.3345 31.4284 91.5687 30.7829C91.8005 30.1475 92.0472 29.5195 92.2839 28.884C92.4683 28.3881 92.6577 27.8947 92.8197 27.3888C92.902 27.1321 92.9967 26.9951 93.3106 27.005C94.1056 27.0324 94.903 27.015 95.7005 27.0125C96.1615 27.0125 96.1441 27.015 96.2961 27.4461C96.5902 28.2785 96.9066 29.1033 97.2107 29.9356C97.4972 30.7206 97.7714 31.5081 98.0604 32.2906C98.2997 32.9435 98.5539 33.5915 98.7956 34.2444C99.0249 34.8624 99.2442 35.4829 99.4684 36.1009C99.5756 36.395 99.7052 36.6865 99.7899 36.9881C99.8996 37.3743 99.8622 37.4067 99.4709 37.4042C99.142 37.4042 98.813 37.4042 98.4841 37.4042L98.4766 37.4117ZM94.5068 29.7089C94.3623 29.8808 94.4022 30.0229 94.3598 30.14C94.0408 31.0446 93.7193 31.9492 93.4377 32.8663C93.2832 33.3697 93.2758 33.3672 93.7941 33.3672C94.3722 33.3672 94.9504 33.3722 95.5261 33.3672C95.6058 33.3672 95.7728 33.4195 95.7204 33.2476C95.5809 32.799 95.4164 32.3604 95.2619 31.9168C95.1273 31.5281 94.9928 31.1368 94.8607 30.748C94.7485 30.4166 94.6339 30.0877 94.5043 29.7064L94.5068 29.7089Z" fill="black"/>
<path d="M66.7379 32.181C66.7379 30.5412 66.7429 28.9015 66.733 27.2592C66.733 27.0175 66.8551 27.0125 67.032 27.0125C69.2325 27.015 71.4329 27.015 73.6334 27.0175C74.0952 27.0175 74.3262 27.2509 74.3262 27.7178C74.3262 28.0666 74.3162 28.413 74.3336 28.7619C74.3436 28.9563 74.2664 28.9937 74.0894 28.9937C72.6465 28.9862 71.2012 28.9937 69.7583 28.9812C69.524 28.9812 69.4194 29.0161 69.4368 29.2852C69.4642 29.6914 69.4468 30.1001 69.4368 30.5063C69.4318 30.6882 69.4667 30.7655 69.6835 30.763C71.0168 30.7481 72.3525 30.758 73.6857 30.7456C73.9324 30.7456 73.9897 30.8452 73.9823 31.0695C73.9698 31.5555 73.9648 32.0439 73.9823 32.5299C73.9922 32.7666 73.9025 32.8189 73.6907 32.8164C72.3774 32.809 71.0616 32.8164 69.7483 32.8015C69.4916 32.799 69.4268 32.8688 69.4343 33.1155C69.4518 33.7609 69.4518 34.4088 69.4343 35.0543C69.4268 35.311 69.5041 35.3633 69.7558 35.3608C71.1987 35.3434 72.644 35.3533 74.0869 35.3434C74.2763 35.3434 74.3287 35.4181 74.3287 35.5901C74.3237 36.1159 74.3262 36.6442 74.3287 37.17C74.3287 37.342 74.2688 37.4142 74.0819 37.4117C71.722 37.4067 69.362 37.4067 67.0046 37.4117C66.7953 37.4117 66.7305 37.3345 66.7305 37.1301C66.7379 35.4804 66.733 33.8307 66.733 32.1785L66.7379 32.181Z" fill="black"/>
<path d="M29.51 37.4092C29.1412 37.4092 28.7699 37.3793 28.406 37.4192C28.0796 37.4541 27.945 37.3021 27.8553 37.0354C27.5114 36.0212 27.1376 35.0194 26.7613 34.0176C26.4099 33.0806 26.1009 32.1286 25.7595 31.1866C25.4729 30.3917 25.1664 29.6042 24.8723 28.8117C24.6705 28.2685 24.4711 27.7227 24.2817 27.177C24.2045 26.9527 24.3939 27.02 24.4936 27.02C25.2113 27.0175 25.9265 27.02 26.6442 27.02C27.1052 27.02 27.0902 27.025 27.2298 27.4536C27.4042 27.9944 27.6136 28.5252 27.798 29.0609C27.9824 29.5992 28.1494 30.145 28.3338 30.6833C28.5132 31.2116 28.7101 31.7324 28.8895 32.2607C29.0764 32.809 29.2508 33.3597 29.4303 33.9079C29.4527 33.9777 29.4228 34.0899 29.5275 34.0948C29.6221 34.0998 29.6446 33.9977 29.6695 33.9279C29.8514 33.3896 30.0234 32.8463 30.2103 32.3081C30.3997 31.7623 30.604 31.2215 30.7909 30.6758C30.9753 30.1375 31.1423 29.5942 31.3267 29.056C31.5061 28.5301 31.698 28.0068 31.8824 27.481C31.9024 27.4262 31.9298 27.3689 31.9323 27.3115C31.9397 27.0748 32.0768 27.0125 32.2861 27.015C33.0611 27.015 33.8387 27.015 34.6137 27.005C34.8031 27.005 34.818 27.0923 34.7582 27.2268C34.4617 27.8997 34.2424 28.5999 33.9957 29.2927C33.7639 29.9381 33.5047 30.5761 33.268 31.2215C33.0861 31.7174 32.9216 32.2208 32.7447 32.7168C32.5129 33.3647 32.2762 34.0076 32.0419 34.6531C31.8575 35.1589 31.6681 35.6623 31.4887 36.1682C31.3641 36.5196 31.2544 36.8759 31.1199 37.2223C31.07 37.3494 30.9703 37.4317 30.7934 37.4242C30.3673 37.4043 29.9386 37.4192 29.51 37.4192C29.51 37.4167 29.51 37.4142 29.51 37.4092Z" fill="black"/>
<path d="M46.0397 32.2034C46.0397 30.5636 46.0446 28.9239 46.0347 27.2816C46.0347 27.0574 46.1144 27.01 46.3113 27.0125C47.0589 27.0175 47.804 27.0125 48.5516 27.0075C48.7161 27.0075 48.7809 27.0698 48.7809 27.2393C48.7734 29.8534 48.7709 32.4675 48.7634 35.0817C48.7634 35.2835 48.8183 35.3633 49.0326 35.3608C50.4555 35.3508 51.881 35.3558 53.3039 35.3433C53.5307 35.3433 53.6254 35.3932 53.6179 35.6399C53.6005 36.1358 53.6079 36.6342 53.6179 37.1301C53.6204 37.327 53.578 37.4142 53.3537 37.4117C51.0137 37.4043 48.6737 37.4067 46.3362 37.4117C46.1269 37.4117 46.0397 37.3519 46.0397 37.1202C46.0496 35.4804 46.0446 33.8407 46.0446 32.1984L46.0397 32.2034Z" fill="black"/>
</g>
<defs>
<clipPath id="clip0_0_1573">
<rect width="100" height="37.9785" fill="white" transform="translate(0 0.210693)"/>
</clipPath>
</defs>
</svg>
